<mxfile host="Electron" modified="2025-03-17T02:00:47.452Z" agent="Mozilla/5.0 (Windows NT 10.0; Win64; x64) AppleWebKit/537.36 (KHTML, like Gecko) draw.io/21.6.8 Chrome/114.0.5735.289 Electron/25.5.0 Safari/537.36" etag="HXuPGCKraDosFVjA4NMG" version="21.6.8" type="device">
  <diagram id="C5RBs43oDa-KdzZeNtuy" name="Page-1">
    <mxGraphModel dx="1658" dy="820" grid="1" gridSize="10" guides="1" tooltips="1" connect="1" arrows="1" fold="1" page="1" pageScale="1" pageWidth="827" pageHeight="1169" math="0" shadow="0">
      <root>
        <mxCell id="WIyWlLk6GJQsqaUBKTNV-0" />
        <mxCell id="WIyWlLk6GJQsqaUBKTNV-1" parent="WIyWlLk6GJQsqaUBKTNV-0" />
        <mxCell id="XoCZi_3HAwhs9e6C-fGd-0" value="Role" style="swimlane;fontStyle=1;align=center;verticalAlign=top;childLayout=stackLayout;horizontal=1;startSize=28.4;horizontalStack=0;resizeParent=1;resizeParentMax=0;resizeLast=0;collapsible=0;marginBottom=0;" vertex="1" parent="WIyWlLk6GJQsqaUBKTNV-1">
          <mxGeometry x="143" y="752" width="297" height="148.4" as="geometry" />
        </mxCell>
        <mxCell id="XoCZi_3HAwhs9e6C-fGd-1" value="+Long id" style="text;strokeColor=none;fillColor=none;align=left;verticalAlign=top;spacingLeft=4;spacingRight=4;overflow=hidden;rotatable=0;points=[[0,0.5],[1,0.5]];portConstraint=eastwest;" vertex="1" parent="XoCZi_3HAwhs9e6C-fGd-0">
          <mxGeometry y="28.4" width="297" height="28" as="geometry" />
        </mxCell>
        <mxCell id="XoCZi_3HAwhs9e6C-fGd-2" value="+String name" style="text;strokeColor=none;fillColor=none;align=left;verticalAlign=top;spacingLeft=4;spacingRight=4;overflow=hidden;rotatable=0;points=[[0,0.5],[1,0.5]];portConstraint=eastwest;" vertex="1" parent="XoCZi_3HAwhs9e6C-fGd-0">
          <mxGeometry y="56.4" width="297" height="28" as="geometry" />
        </mxCell>
        <mxCell id="XoCZi_3HAwhs9e6C-fGd-3" style="line;strokeWidth=1;fillColor=none;align=left;verticalAlign=middle;spacingTop=-1;spacingLeft=3;spacingRight=3;rotatable=0;labelPosition=right;points=[];portConstraint=eastwest;strokeColor=inherit;" vertex="1" parent="XoCZi_3HAwhs9e6C-fGd-0">
          <mxGeometry y="84.4" width="297" height="8" as="geometry" />
        </mxCell>
        <mxCell id="XoCZi_3HAwhs9e6C-fGd-4" value="+addRole(Long id, String roleName)" style="text;strokeColor=none;fillColor=none;align=left;verticalAlign=top;spacingLeft=4;spacingRight=4;overflow=hidden;rotatable=0;points=[[0,0.5],[1,0.5]];portConstraint=eastwest;" vertex="1" parent="XoCZi_3HAwhs9e6C-fGd-0">
          <mxGeometry y="92.4" width="297" height="28" as="geometry" />
        </mxCell>
        <mxCell id="XoCZi_3HAwhs9e6C-fGd-5" value="+removeRole(Long id, String roleName)" style="text;strokeColor=none;fillColor=none;align=left;verticalAlign=top;spacingLeft=4;spacingRight=4;overflow=hidden;rotatable=0;points=[[0,0.5],[1,0.5]];portConstraint=eastwest;" vertex="1" parent="XoCZi_3HAwhs9e6C-fGd-0">
          <mxGeometry y="120.4" width="297" height="28" as="geometry" />
        </mxCell>
        <mxCell id="XoCZi_3HAwhs9e6C-fGd-6" value="Address" style="swimlane;fontStyle=1;align=center;verticalAlign=top;childLayout=stackLayout;horizontal=1;startSize=25.066666666666666;horizontalStack=0;resizeParent=1;resizeParentMax=0;resizeLast=0;collapsible=0;marginBottom=0;" vertex="1" parent="WIyWlLk6GJQsqaUBKTNV-1">
          <mxGeometry x="510" y="752" width="125" height="188.06666666666666" as="geometry" />
        </mxCell>
        <mxCell id="XoCZi_3HAwhs9e6C-fGd-7" value="+Long id" style="text;strokeColor=none;fillColor=none;align=left;verticalAlign=top;spacingLeft=4;spacingRight=4;overflow=hidden;rotatable=0;points=[[0,0.5],[1,0.5]];portConstraint=eastwest;" vertex="1" parent="XoCZi_3HAwhs9e6C-fGd-6">
          <mxGeometry y="25.066666666666666" width="125" height="25" as="geometry" />
        </mxCell>
        <mxCell id="XoCZi_3HAwhs9e6C-fGd-8" value="+String street" style="text;strokeColor=none;fillColor=none;align=left;verticalAlign=top;spacingLeft=4;spacingRight=4;overflow=hidden;rotatable=0;points=[[0,0.5],[1,0.5]];portConstraint=eastwest;" vertex="1" parent="XoCZi_3HAwhs9e6C-fGd-6">
          <mxGeometry y="50.06666666666666" width="125" height="25" as="geometry" />
        </mxCell>
        <mxCell id="XoCZi_3HAwhs9e6C-fGd-9" value="+String city" style="text;strokeColor=none;fillColor=none;align=left;verticalAlign=top;spacingLeft=4;spacingRight=4;overflow=hidden;rotatable=0;points=[[0,0.5],[1,0.5]];portConstraint=eastwest;" vertex="1" parent="XoCZi_3HAwhs9e6C-fGd-6">
          <mxGeometry y="75.06666666666666" width="125" height="25" as="geometry" />
        </mxCell>
        <mxCell id="XoCZi_3HAwhs9e6C-fGd-10" value="+String state" style="text;strokeColor=none;fillColor=none;align=left;verticalAlign=top;spacingLeft=4;spacingRight=4;overflow=hidden;rotatable=0;points=[[0,0.5],[1,0.5]];portConstraint=eastwest;" vertex="1" parent="XoCZi_3HAwhs9e6C-fGd-6">
          <mxGeometry y="100.06666666666666" width="125" height="25" as="geometry" />
        </mxCell>
        <mxCell id="XoCZi_3HAwhs9e6C-fGd-11" value="+String zipcode" style="text;strokeColor=none;fillColor=none;align=left;verticalAlign=top;spacingLeft=4;spacingRight=4;overflow=hidden;rotatable=0;points=[[0,0.5],[1,0.5]];portConstraint=eastwest;" vertex="1" parent="XoCZi_3HAwhs9e6C-fGd-6">
          <mxGeometry y="125.06666666666666" width="125" height="25" as="geometry" />
        </mxCell>
        <mxCell id="XoCZi_3HAwhs9e6C-fGd-12" value="+String country" style="text;strokeColor=none;fillColor=none;align=left;verticalAlign=top;spacingLeft=4;spacingRight=4;overflow=hidden;rotatable=0;points=[[0,0.5],[1,0.5]];portConstraint=eastwest;" vertex="1" parent="XoCZi_3HAwhs9e6C-fGd-6">
          <mxGeometry y="150.06666666666666" width="125" height="25" as="geometry" />
        </mxCell>
        <mxCell id="XoCZi_3HAwhs9e6C-fGd-13" style="line;strokeWidth=1;fillColor=none;align=left;verticalAlign=middle;spacingTop=-1;spacingLeft=3;spacingRight=3;rotatable=0;labelPosition=right;points=[];portConstraint=eastwest;strokeColor=inherit;" vertex="1" parent="XoCZi_3HAwhs9e6C-fGd-6">
          <mxGeometry y="175.06666666666666" width="125" height="13" as="geometry" />
        </mxCell>
        <mxCell id="XoCZi_3HAwhs9e6C-fGd-14" value="Token" style="swimlane;fontStyle=1;align=center;verticalAlign=top;childLayout=stackLayout;horizontal=1;startSize=28.4;horizontalStack=0;resizeParent=1;resizeParentMax=0;resizeLast=0;collapsible=0;marginBottom=0;" vertex="1" parent="WIyWlLk6GJQsqaUBKTNV-1">
          <mxGeometry x="319" y="20" width="207" height="148.4" as="geometry" />
        </mxCell>
        <mxCell id="XoCZi_3HAwhs9e6C-fGd-15" value="+Long id" style="text;strokeColor=none;fillColor=none;align=left;verticalAlign=top;spacingLeft=4;spacingRight=4;overflow=hidden;rotatable=0;points=[[0,0.5],[1,0.5]];portConstraint=eastwest;" vertex="1" parent="XoCZi_3HAwhs9e6C-fGd-14">
          <mxGeometry y="28.4" width="207" height="28" as="geometry" />
        </mxCell>
        <mxCell id="XoCZi_3HAwhs9e6C-fGd-16" value="+String tokenValue" style="text;strokeColor=none;fillColor=none;align=left;verticalAlign=top;spacingLeft=4;spacingRight=4;overflow=hidden;rotatable=0;points=[[0,0.5],[1,0.5]];portConstraint=eastwest;" vertex="1" parent="XoCZi_3HAwhs9e6C-fGd-14">
          <mxGeometry y="56.4" width="207" height="28" as="geometry" />
        </mxCell>
        <mxCell id="XoCZi_3HAwhs9e6C-fGd-17" value="+Date expiryDate" style="text;strokeColor=none;fillColor=none;align=left;verticalAlign=top;spacingLeft=4;spacingRight=4;overflow=hidden;rotatable=0;points=[[0,0.5],[1,0.5]];portConstraint=eastwest;" vertex="1" parent="XoCZi_3HAwhs9e6C-fGd-14">
          <mxGeometry y="84.4" width="207" height="28" as="geometry" />
        </mxCell>
        <mxCell id="XoCZi_3HAwhs9e6C-fGd-18" style="line;strokeWidth=1;fillColor=none;align=left;verticalAlign=middle;spacingTop=-1;spacingLeft=3;spacingRight=3;rotatable=0;labelPosition=right;points=[];portConstraint=eastwest;strokeColor=inherit;" vertex="1" parent="XoCZi_3HAwhs9e6C-fGd-14">
          <mxGeometry y="112.4" width="207" height="8" as="geometry" />
        </mxCell>
        <mxCell id="XoCZi_3HAwhs9e6C-fGd-19" value="+generateToken(User user)" style="text;strokeColor=none;fillColor=none;align=left;verticalAlign=top;spacingLeft=4;spacingRight=4;overflow=hidden;rotatable=0;points=[[0,0.5],[1,0.5]];portConstraint=eastwest;" vertex="1" parent="XoCZi_3HAwhs9e6C-fGd-14">
          <mxGeometry y="120.4" width="207" height="28" as="geometry" />
        </mxCell>
        <mxCell id="XoCZi_3HAwhs9e6C-fGd-20" value="User" style="swimlane;fontStyle=1;align=center;verticalAlign=top;childLayout=stackLayout;horizontal=1;startSize=24.6875;horizontalStack=0;resizeParent=1;resizeParentMax=0;resizeLast=0;collapsible=0;marginBottom=0;" vertex="1" parent="WIyWlLk6GJQsqaUBKTNV-1">
          <mxGeometry x="98" y="239" width="620" height="407.6875" as="geometry" />
        </mxCell>
        <mxCell id="XoCZi_3HAwhs9e6C-fGd-21" value="+Long id" style="text;strokeColor=none;fillColor=none;align=left;verticalAlign=top;spacingLeft=4;spacingRight=4;overflow=hidden;rotatable=0;points=[[0,0.5],[1,0.5]];portConstraint=eastwest;" vertex="1" parent="XoCZi_3HAwhs9e6C-fGd-20">
          <mxGeometry y="24.6875" width="620" height="25" as="geometry" />
        </mxCell>
        <mxCell id="XoCZi_3HAwhs9e6C-fGd-22" value="+String name" style="text;strokeColor=none;fillColor=none;align=left;verticalAlign=top;spacingLeft=4;spacingRight=4;overflow=hidden;rotatable=0;points=[[0,0.5],[1,0.5]];portConstraint=eastwest;" vertex="1" parent="XoCZi_3HAwhs9e6C-fGd-20">
          <mxGeometry y="49.6875" width="620" height="25" as="geometry" />
        </mxCell>
        <mxCell id="XoCZi_3HAwhs9e6C-fGd-23" value="+String email" style="text;strokeColor=none;fillColor=none;align=left;verticalAlign=top;spacingLeft=4;spacingRight=4;overflow=hidden;rotatable=0;points=[[0,0.5],[1,0.5]];portConstraint=eastwest;" vertex="1" parent="XoCZi_3HAwhs9e6C-fGd-20">
          <mxGeometry y="74.6875" width="620" height="25" as="geometry" />
        </mxCell>
        <mxCell id="XoCZi_3HAwhs9e6C-fGd-24" value="+String hashedPassword" style="text;strokeColor=none;fillColor=none;align=left;verticalAlign=top;spacingLeft=4;spacingRight=4;overflow=hidden;rotatable=0;points=[[0,0.5],[1,0.5]];portConstraint=eastwest;" vertex="1" parent="XoCZi_3HAwhs9e6C-fGd-20">
          <mxGeometry y="99.6875" width="620" height="25" as="geometry" />
        </mxCell>
        <mxCell id="XoCZi_3HAwhs9e6C-fGd-25" value="+List roles" style="text;strokeColor=none;fillColor=none;align=left;verticalAlign=top;spacingLeft=4;spacingRight=4;overflow=hidden;rotatable=0;points=[[0,0.5],[1,0.5]];portConstraint=eastwest;" vertex="1" parent="XoCZi_3HAwhs9e6C-fGd-20">
          <mxGeometry y="124.6875" width="620" height="25" as="geometry" />
        </mxCell>
        <mxCell id="XoCZi_3HAwhs9e6C-fGd-26" value="+Address address" style="text;strokeColor=none;fillColor=none;align=left;verticalAlign=top;spacingLeft=4;spacingRight=4;overflow=hidden;rotatable=0;points=[[0,0.5],[1,0.5]];portConstraint=eastwest;" vertex="1" parent="XoCZi_3HAwhs9e6C-fGd-20">
          <mxGeometry y="149.6875" width="620" height="25" as="geometry" />
        </mxCell>
        <mxCell id="XoCZi_3HAwhs9e6C-fGd-27" value="+String resetPasswordQuestion" style="text;strokeColor=none;fillColor=none;align=left;verticalAlign=top;spacingLeft=4;spacingRight=4;overflow=hidden;rotatable=0;points=[[0,0.5],[1,0.5]];portConstraint=eastwest;" vertex="1" parent="XoCZi_3HAwhs9e6C-fGd-20">
          <mxGeometry y="174.6875" width="620" height="25" as="geometry" />
        </mxCell>
        <mxCell id="XoCZi_3HAwhs9e6C-fGd-28" value="+String resetPasswordAnswer" style="text;strokeColor=none;fillColor=none;align=left;verticalAlign=top;spacingLeft=4;spacingRight=4;overflow=hidden;rotatable=0;points=[[0,0.5],[1,0.5]];portConstraint=eastwest;" vertex="1" parent="XoCZi_3HAwhs9e6C-fGd-20">
          <mxGeometry y="199.6875" width="620" height="25" as="geometry" />
        </mxCell>
        <mxCell id="XoCZi_3HAwhs9e6C-fGd-29" style="line;strokeWidth=1;fillColor=none;align=left;verticalAlign=middle;spacingTop=-1;spacingLeft=3;spacingRight=3;rotatable=0;labelPosition=right;points=[];portConstraint=eastwest;strokeColor=inherit;" vertex="1" parent="XoCZi_3HAwhs9e6C-fGd-20">
          <mxGeometry y="224.6875" width="620" height="8" as="geometry" />
        </mxCell>
        <mxCell id="XoCZi_3HAwhs9e6C-fGd-30" value="+signup(String email, String password)" style="text;strokeColor=none;fillColor=none;align=left;verticalAlign=top;spacingLeft=4;spacingRight=4;overflow=hidden;rotatable=0;points=[[0,0.5],[1,0.5]];portConstraint=eastwest;" vertex="1" parent="XoCZi_3HAwhs9e6C-fGd-20">
          <mxGeometry y="232.6875" width="620" height="25" as="geometry" />
        </mxCell>
        <mxCell id="XoCZi_3HAwhs9e6C-fGd-31" value="+getAllUsers()" style="text;strokeColor=none;fillColor=none;align=left;verticalAlign=top;spacingLeft=4;spacingRight=4;overflow=hidden;rotatable=0;points=[[0,0.5],[1,0.5]];portConstraint=eastwest;" vertex="1" parent="XoCZi_3HAwhs9e6C-fGd-20">
          <mxGeometry y="257.6875" width="620" height="25" as="geometry" />
        </mxCell>
        <mxCell id="XoCZi_3HAwhs9e6C-fGd-32" value="+getUsersByEmail(String email)" style="text;strokeColor=none;fillColor=none;align=left;verticalAlign=top;spacingLeft=4;spacingRight=4;overflow=hidden;rotatable=0;points=[[0,0.5],[1,0.5]];portConstraint=eastwest;" vertex="1" parent="XoCZi_3HAwhs9e6C-fGd-20">
          <mxGeometry y="282.6875" width="620" height="25" as="geometry" />
        </mxCell>
        <mxCell id="XoCZi_3HAwhs9e6C-fGd-33" value="+getResetPasswordQuestion(String email)" style="text;strokeColor=none;fillColor=none;align=left;verticalAlign=top;spacingLeft=4;spacingRight=4;overflow=hidden;rotatable=0;points=[[0,0.5],[1,0.5]];portConstraint=eastwest;" vertex="1" parent="XoCZi_3HAwhs9e6C-fGd-20">
          <mxGeometry y="307.6875" width="620" height="25" as="geometry" />
        </mxCell>
        <mxCell id="XoCZi_3HAwhs9e6C-fGd-34" value="+resetPassword(String email, String resetPasswordQuestion, String resetPasswordAnswer, String newPassword)" style="text;strokeColor=none;fillColor=none;align=left;verticalAlign=top;spacingLeft=4;spacingRight=4;overflow=hidden;rotatable=0;points=[[0,0.5],[1,0.5]];portConstraint=eastwest;" vertex="1" parent="XoCZi_3HAwhs9e6C-fGd-20">
          <mxGeometry y="332.6875" width="620" height="25" as="geometry" />
        </mxCell>
        <mxCell id="XoCZi_3HAwhs9e6C-fGd-35" value="+updateUser(Long id, Map updates)" style="text;strokeColor=none;fillColor=none;align=left;verticalAlign=top;spacingLeft=4;spacingRight=4;overflow=hidden;rotatable=0;points=[[0,0.5],[1,0.5]];portConstraint=eastwest;" vertex="1" parent="XoCZi_3HAwhs9e6C-fGd-20">
          <mxGeometry y="357.6875" width="620" height="25" as="geometry" />
        </mxCell>
        <mxCell id="XoCZi_3HAwhs9e6C-fGd-36" value="+deleteUser(String email)" style="text;strokeColor=none;fillColor=none;align=left;verticalAlign=top;spacingLeft=4;spacingRight=4;overflow=hidden;rotatable=0;points=[[0,0.5],[1,0.5]];portConstraint=eastwest;" vertex="1" parent="XoCZi_3HAwhs9e6C-fGd-20">
          <mxGeometry y="382.6875" width="620" height="25" as="geometry" />
        </mxCell>
        <mxCell id="XoCZi_3HAwhs9e6C-fGd-37" value="has" style="curved=1;startArrow=none;endArrow=none;exitX=0.3615462231348554;exitY=1;entryX=0.25;entryY=0;rounded=0;entryDx=0;entryDy=0;" edge="1" parent="WIyWlLk6GJQsqaUBKTNV-1" source="XoCZi_3HAwhs9e6C-fGd-20" target="XoCZi_3HAwhs9e6C-fGd-0">
          <mxGeometry relative="1" as="geometry">
            <Array as="points">
              <mxPoint x="292" y="677" />
            </Array>
          </mxGeometry>
        </mxCell>
        <mxCell id="XoCZi_3HAwhs9e6C-fGd-38" value="1" style="edgeLabel;resizable=0;align=left;verticalAlign=top;" vertex="1" parent="XoCZi_3HAwhs9e6C-fGd-37">
          <mxGeometry x="-1" relative="1" as="geometry" />
        </mxCell>
        <mxCell id="XoCZi_3HAwhs9e6C-fGd-39" value="*" style="edgeLabel;resizable=0;align=right;verticalAlign=top;" vertex="1" parent="XoCZi_3HAwhs9e6C-fGd-37">
          <mxGeometry x="1" relative="1" as="geometry" />
        </mxCell>
        <mxCell id="XoCZi_3HAwhs9e6C-fGd-40" value="has" style="curved=1;startArrow=none;endArrow=none;exitX=0.6389493458949954;exitY=1;rounded=0;" edge="1" parent="WIyWlLk6GJQsqaUBKTNV-1" source="XoCZi_3HAwhs9e6C-fGd-20">
          <mxGeometry relative="1" as="geometry">
            <Array as="points">
              <mxPoint x="510" y="690" />
            </Array>
            <mxPoint x="520" y="750" as="targetPoint" />
          </mxGeometry>
        </mxCell>
        <mxCell id="XoCZi_3HAwhs9e6C-fGd-41" value="1" style="edgeLabel;resizable=0;align=left;verticalAlign=top;" vertex="1" parent="XoCZi_3HAwhs9e6C-fGd-40">
          <mxGeometry x="-1" relative="1" as="geometry" />
        </mxCell>
        <mxCell id="XoCZi_3HAwhs9e6C-fGd-42" value="1" style="edgeLabel;resizable=0;align=right;verticalAlign=top;" vertex="1" parent="XoCZi_3HAwhs9e6C-fGd-40">
          <mxGeometry x="1" relative="1" as="geometry" />
        </mxCell>
        <mxCell id="XoCZi_3HAwhs9e6C-fGd-43" value="has" style="curved=1;startArrow=none;endArrow=none;exitX=0.5370201254305143;exitY=0;entryX=0.6131222702005164;entryY=1;rounded=0;" edge="1" parent="WIyWlLk6GJQsqaUBKTNV-1" source="XoCZi_3HAwhs9e6C-fGd-20" target="XoCZi_3HAwhs9e6C-fGd-14">
          <mxGeometry relative="1" as="geometry">
            <Array as="points">
              <mxPoint x="457" y="205" />
            </Array>
          </mxGeometry>
        </mxCell>
        <mxCell id="XoCZi_3HAwhs9e6C-fGd-44" value="1" style="edgeLabel;resizable=0;align=left;verticalAlign=top;" vertex="1" parent="XoCZi_3HAwhs9e6C-fGd-43">
          <mxGeometry x="-1" relative="1" as="geometry" />
        </mxCell>
        <mxCell id="XoCZi_3HAwhs9e6C-fGd-45" value="*" style="edgeLabel;resizable=0;align=right;verticalAlign=top;" vertex="1" parent="XoCZi_3HAwhs9e6C-fGd-43">
          <mxGeometry x="1" relative="1" as="geometry" />
        </mxCell>
        <mxCell id="XoCZi_3HAwhs9e6C-fGd-46" value="belongs to" style="curved=1;startArrow=none;endArrow=none;exitX=0.38397163076566726;exitY=1;entryX=0.4634754435993365;entryY=0;rounded=0;" edge="1" parent="WIyWlLk6GJQsqaUBKTNV-1" source="XoCZi_3HAwhs9e6C-fGd-14" target="XoCZi_3HAwhs9e6C-fGd-20">
          <mxGeometry relative="1" as="geometry">
            <Array as="points">
              <mxPoint x="388" y="205" />
            </Array>
          </mxGeometry>
        </mxCell>
        <mxCell id="XoCZi_3HAwhs9e6C-fGd-47" value="*" style="edgeLabel;resizable=0;align=left;verticalAlign=top;" vertex="1" parent="XoCZi_3HAwhs9e6C-fGd-46">
          <mxGeometry x="-1" relative="1" as="geometry" />
        </mxCell>
        <mxCell id="XoCZi_3HAwhs9e6C-fGd-48" value="1" style="edgeLabel;resizable=0;align=right;verticalAlign=top;" vertex="1" parent="XoCZi_3HAwhs9e6C-fGd-46">
          <mxGeometry x="1" relative="1" as="geometry" />
        </mxCell>
      </root>
    </mxGraphModel>
  </diagram>
</mxfile>
